<?xml version="1.0" standalone="no"?>
<!DOCTYPE svg PUBLIC "-//W3C//DTD SVG 20010904//EN"
 "http://www.w3.org/TR/2001/REC-SVG-20010904/DTD/svg10.dtd">
<svg version="1.0" xmlns="http://www.w3.org/2000/svg"
 width="1080.000000pt" height="1080.000000pt" viewBox="0 0 1080.000000 1080.000000"
 preserveAspectRatio="xMidYMid meet">
<metadata>
Created by potrace 1.14, written by Peter Selinger 2001-2017
</metadata>
<g transform="translate(0.000000,1080.000000) scale(0.100000,-0.100000)"
fill="#000000" stroke="none">
<path d="M0 5400 l0 -5400 5400 0 5400 0 0 5400 0 5400 -5400 0 -5400 0 0
-5400z m6025 2075 c354 -50 630 -180 848 -399 312 -312 454 -808 371 -1296
-19 -112 -77 -297 -120 -383 -116 -229 -302 -427 -519 -553 -46 -27 -85 -53
-85 -58 0 -5 168 -335 373 -734 204 -399 374 -729 375 -734 2 -4 -320 -7 -715
-6 l-718 3 -290 672 -290 673 -232 0 -233 0 0 -675 0 -675 -630 0 -630 0 0
2090 0 2090 1198 0 c983 0 1215 -3 1297 -15z"/>
<path d="M4790 6075 l0 -375 383 0 c402 0 485 6 582 42 80 30 184 131 209 203
29 87 31 154 7 236 -20 67 -29 80 -90 139 -77 75 -142 105 -256 120 -38 5
-242 10 -452 10 l-383 0 0 -375z"/>
</g>
</svg>
